<svg id="svg" version="1.1" xmlns="http://www.w3.org/2000/svg" xmlns:xlink="http://www.w3.org/1999/xlink" width="400" height="160" viewBox="0, 0, 400,160"><g id="svgg"><path id="path0" d="M0.000 80.000 L 0.000 160.000 200.000 160.000 L 400.000 160.000 400.000 80.000 L 400.000 0.000 200.000 0.000 L 0.000 0.000 0.000 80.000 M119.467 70.533 C 119.617 70.684,119.667 72.908,119.667 79.521 L 119.667 88.309 120.125 88.670 C 120.472 88.944,120.734 89.012,121.202 88.949 C 121.913 88.854,122.057 88.979,122.317 89.917 C 122.985 92.321,118.098 91.448,117.375 89.034 C 117.081 88.053,117.073 70.827,117.367 70.533 C 117.626 70.274,119.207 70.274,119.467 70.533 M126.977 70.597 C 128.591 71.402,128.128 73.667,126.349 73.667 C 125.241 73.667,124.665 73.140,124.672 72.133 C 124.682 70.746,125.793 70.006,126.977 70.597 M230.165 70.582 C 231.797 71.426,231.332 73.667,229.525 73.667 C 227.832 73.667,227.165 71.909,228.455 70.845 C 229.152 70.271,229.468 70.222,230.165 70.582 M267.626 82.042 L 267.669 93.667 266.584 93.667 L 265.500 93.667 265.500 82.111 C 265.500 75.756,265.553 70.502,265.618 70.437 C 265.683 70.372,266.152 70.341,266.660 70.368 L 267.583 70.417 267.626 82.042 M108.750 71.429 C 110.962 71.734,113.667 73.885,113.667 75.339 C 113.667 76.340,111.825 76.801,111.400 75.906 C 110.228 73.435,105.361 72.810,102.965 74.822 C 101.093 76.393,100.077 80.043,100.679 83.029 C 100.948 84.363,101.400 85.833,101.542 85.833 C 101.610 85.833,101.667 85.907,101.667 85.998 C 101.667 86.344,102.608 87.493,103.125 87.778 C 103.423 87.942,103.667 88.134,103.667 88.205 C 103.667 88.275,103.802 88.333,103.967 88.333 C 104.132 88.333,104.358 88.425,104.470 88.537 C 104.864 88.930,108.286 88.812,109.210 88.373 C 110.033 87.983,111.167 86.925,111.167 86.549 C 111.167 86.430,111.242 86.333,111.333 86.333 C 111.425 86.333,111.500 86.192,111.500 86.018 C 111.500 85.004,112.569 84.761,113.559 85.550 C 114.077 85.963,114.075 85.977,113.271 87.654 C 111.369 91.623,105.062 92.476,101.064 89.304 C 97.077 86.142,96.750 77.550,100.477 73.850 C 102.777 71.566,105.011 70.912,108.750 71.429 M184.671 71.928 C 184.768 72.184,184.833 75.615,184.833 80.511 L 184.833 88.667 189.155 88.667 C 194.116 88.667,194.053 88.649,193.967 89.979 L 193.917 90.750 188.042 90.794 L 182.167 90.838 182.167 81.280 C 182.167 76.023,182.217 71.672,182.278 71.611 C 182.632 71.256,184.510 71.505,184.671 71.928 M167.232 73.097 C 167.288 73.242,167.333 74.027,167.333 74.842 L 167.333 76.324 169.625 76.370 L 171.917 76.417 171.967 77.105 C 172.049 78.227,171.827 78.333,169.405 78.333 L 167.333 78.333 167.333 82.986 C 167.333 88.158,167.386 88.438,168.419 88.811 C 169.221 89.102,170.647 88.909,171.108 88.448 C 171.482 88.074,172.459 89.479,172.234 90.066 C 171.861 91.037,169.407 91.558,167.599 91.051 C 165.129 90.358,164.813 89.490,164.714 83.125 L 164.640 78.333 163.750 78.333 C 162.414 78.333,162.333 78.271,162.333 77.232 L 162.333 76.333 163.500 76.333 L 164.667 76.333 164.669 75.125 C 164.672 73.365,164.728 73.246,165.638 73.048 C 166.800 72.796,167.120 72.806,167.232 73.097 M224.300 74.533 C 224.849 75.082,224.365 76.495,223.323 77.387 C 222.540 78.057,222.544 78.027,223.141 78.801 C 225.641 82.042,222.497 86.221,217.635 86.119 C 215.772 86.081,215.056 86.957,216.179 87.902 C 216.675 88.319,216.766 88.333,218.927 88.333 C 223.581 88.333,225.333 89.398,225.333 92.225 C 225.333 94.377,224.226 95.754,221.750 96.683 C 220.454 97.169,215.643 97.140,215.092 96.643 C 215.005 96.564,214.787 96.500,214.607 96.500 C 214.428 96.500,214.012 96.298,213.682 96.050 C 211.190 94.179,211.143 91.304,213.583 90.083 C 214.492 89.629,214.522 89.547,213.975 89.001 C 213.505 88.531,213.418 88.149,213.497 86.917 C 213.534 86.336,214.025 85.750,214.769 85.397 L 215.293 85.148 214.396 84.251 C 213.903 83.758,213.500 83.205,213.500 83.021 C 213.500 82.837,213.425 82.640,213.333 82.583 C 212.962 82.354,213.141 79.699,213.593 78.744 C 214.768 76.262,219.018 75.022,221.118 76.549 C 221.513 76.837,222.333 75.627,222.333 74.757 C 222.333 74.282,223.874 74.107,224.300 74.533 M140.167 76.250 C 141.508 76.626,142.897 77.752,143.374 78.852 C 143.509 79.162,143.716 79.642,143.833 79.917 C 144.168 80.702,144.266 83.710,143.965 83.960 C 143.790 84.105,142.365 84.174,138.903 84.206 L 134.083 84.250 134.118 85.235 C 134.137 85.776,134.231 86.297,134.326 86.393 C 134.422 86.488,134.501 86.683,134.503 86.825 C 134.506 87.173,135.300 88.042,135.917 88.374 C 138.044 89.519,140.513 89.094,141.692 87.380 C 142.239 86.585,142.275 86.582,143.308 87.234 C 144.146 87.763,144.024 88.294,142.783 89.529 C 139.937 92.362,134.413 91.686,132.415 88.260 C 130.923 85.700,131.050 80.661,132.661 78.592 C 133.568 77.426,134.485 76.766,135.917 76.249 C 136.875 75.903,138.930 75.903,140.167 76.250 M156.417 76.199 C 157.916 76.719,158.740 77.400,159.110 78.426 C 159.639 79.893,159.667 80.244,159.667 85.477 L 159.667 90.848 158.458 90.799 L 157.250 90.750 157.167 85.333 C 157.089 80.258,157.062 79.880,156.742 79.333 C 155.813 77.747,152.920 77.747,151.333 79.333 C 150.205 80.461,150.147 80.768,150.049 86.132 L 149.963 90.847 148.773 90.799 L 147.583 90.750 147.583 83.583 L 147.583 76.417 148.750 76.417 L 149.917 76.417 149.967 77.292 C 150.027 78.341,150.014 78.337,150.772 77.498 C 152.025 76.111,154.513 75.539,156.417 76.199 M204.750 76.194 C 209.031 77.339,210.980 82.946,208.760 87.728 C 206.956 91.612,201.041 92.524,197.956 89.395 C 196.404 87.821,195.532 84.708,195.978 82.333 C 196.346 80.374,196.364 80.314,196.982 79.023 C 198.086 76.716,201.735 75.387,204.750 76.194 M244.250 76.199 C 247.180 77.215,247.383 77.787,247.402 85.083 L 247.417 90.750 246.250 90.750 L 245.083 90.750 245.000 85.417 C 244.922 80.427,244.894 80.040,244.569 79.417 C 243.509 77.381,239.464 77.904,238.443 80.207 C 238.311 80.506,238.142 80.900,238.069 81.083 C 237.995 81.267,237.893 83.517,237.843 86.083 L 237.750 90.750 236.583 90.750 L 235.417 90.750 235.417 83.583 L 235.417 76.417 236.542 76.367 L 237.667 76.318 237.667 77.354 L 237.667 78.390 238.519 77.528 C 238.988 77.054,239.476 76.667,239.603 76.667 C 239.730 76.667,239.833 76.592,239.833 76.500 C 239.833 76.408,240.006 76.333,240.217 76.333 C 240.427 76.333,240.671 76.263,240.758 76.178 C 241.084 75.858,243.305 75.871,244.250 76.199 M127.460 83.625 L 127.504 90.833 126.335 90.833 L 125.167 90.833 125.167 83.576 L 125.167 76.318 126.292 76.367 L 127.417 76.417 127.460 83.625 M230.750 83.583 L 230.750 90.750 229.542 90.799 L 228.333 90.848 228.333 83.583 L 228.333 76.319 229.542 76.368 L 230.750 76.417 230.750 83.583 M136.132 78.489 C 135.026 79.041,134.288 80.165,134.152 81.500 C 134.084 82.174,134.045 82.167,137.833 82.167 C 140.647 82.167,141.504 82.118,141.515 81.958 C 141.736 78.986,138.854 77.128,136.132 78.489 M201.667 78.326 C 201.529 78.419,201.254 78.496,201.056 78.497 C 200.600 78.501,199.486 79.566,199.136 80.333 C 197.958 82.920,198.390 86.666,200.027 88.068 C 201.581 89.398,204.568 89.241,205.829 87.763 C 208.092 85.111,207.084 79.024,204.282 78.420 C 203.288 78.206,201.918 78.156,201.667 78.326 M217.000 78.383 C 215.892 78.899,215.572 79.696,215.643 81.762 C 215.721 84.021,219.799 84.701,221.082 82.668 C 221.792 81.544,221.639 79.841,220.744 78.897 C 220.094 78.210,217.990 77.922,217.000 78.383 M298.284 79.366 C 300.138 80.161,300.368 81.045,300.303 87.142 C 300.222 94.750,300.566 94.494,290.417 94.496 C 282.828 94.498,282.305 94.410,281.248 92.942 L 280.750 92.250 280.702 86.852 L 280.653 81.453 281.104 80.768 C 281.574 80.054,281.955 79.717,282.663 79.389 C 283.269 79.108,297.632 79.087,298.284 79.366 M215.688 90.827 C 213.940 91.260,213.920 93.633,215.658 94.466 C 216.508 94.874,220.487 94.876,221.336 94.469 C 222.981 93.680,223.391 91.722,222.033 91.141 C 221.315 90.833,216.604 90.601,215.688 90.827 " stroke="none" fill="#a4a4a4" fill-rule="evenodd"></path><path id="path1" d="M117.611 70.778 C 117.471 70.918,117.467 87.863,117.608 88.712 C 117.861 90.246,119.754 91.304,121.434 90.851 L 122.106 90.670 122.011 89.960 L 121.917 89.250 121.045 89.167 C 119.377 89.007,119.500 89.756,119.500 79.757 C 119.500 71.281,119.490 71.006,119.178 70.839 C 118.818 70.647,117.783 70.606,117.611 70.778 M125.848 70.806 C 124.836 70.952,124.509 72.294,125.301 73.052 C 126.207 73.921,127.667 73.351,127.667 72.128 C 127.667 71.110,127.016 70.637,125.848 70.806 M229.045 70.788 C 228.078 70.964,227.742 72.168,228.431 72.987 C 229.306 74.026,230.833 73.420,230.833 72.033 C 230.833 71.101,230.107 70.595,229.045 70.788 M265.778 70.778 C 265.717 70.839,265.667 75.976,265.667 82.194 L 265.667 93.500 266.583 93.500 L 267.500 93.500 267.500 82.083 L 267.500 70.667 266.694 70.667 C 266.251 70.667,265.839 70.717,265.778 70.778 M105.250 71.670 C 100.205 72.270,97.225 77.430,98.322 83.667 C 98.821 86.501,100.505 88.994,102.585 89.977 C 103.042 90.193,103.539 90.432,103.689 90.508 C 104.689 91.014,108.643 91.014,109.644 90.508 C 109.794 90.432,110.202 90.231,110.551 90.060 C 111.475 89.609,112.603 88.408,113.171 87.271 C 113.803 86.008,113.795 85.908,113.042 85.563 C 112.698 85.406,112.361 85.249,112.294 85.213 C 112.226 85.178,111.976 85.560,111.738 86.062 C 109.317 91.177,102.081 89.856,100.601 84.028 C 99.128 78.226,101.897 73.457,106.753 73.432 C 109.359 73.419,110.136 73.812,111.800 75.980 L 112.105 76.377 112.802 75.936 C 113.627 75.416,113.635 75.368,113.044 74.455 C 111.611 72.240,108.823 71.244,105.250 71.670 M182.511 71.980 C 182.392 72.203,182.333 75.326,182.333 81.489 L 182.333 90.667 188.000 90.667 L 193.667 90.667 193.667 90.097 C 193.667 88.938,193.925 89.000,189.086 89.000 C 185.628 89.000,184.668 88.953,184.522 88.776 C 184.392 88.620,184.323 86.018,184.293 80.151 L 184.250 71.750 183.469 71.700 C 182.829 71.658,182.656 71.709,182.511 71.980 M165.642 73.281 C 165.111 73.367,165.005 73.683,165.002 75.191 C 165.000 76.474,164.969 76.500,163.477 76.500 L 162.481 76.500 162.532 77.208 L 162.583 77.917 163.750 78.000 L 164.917 78.083 165.023 83.083 C 165.138 88.470,165.150 88.570,165.858 89.610 C 166.731 90.895,169.375 91.353,171.208 90.538 C 172.197 90.098,172.226 89.829,171.407 88.699 C 171.386 88.670,171.080 88.771,170.726 88.922 C 169.401 89.488,167.986 89.245,167.376 88.347 C 167.076 87.906,166.816 79.423,167.071 78.406 C 167.169 78.017,167.210 78.009,169.377 77.963 L 171.583 77.917 171.635 77.208 L 171.686 76.500 169.551 76.497 C 166.909 76.494,167.025 76.573,166.965 74.745 C 166.912 73.100,166.893 73.079,165.642 73.281 M222.592 74.708 C 222.557 74.823,222.479 75.137,222.420 75.407 C 222.199 76.405,221.257 77.218,220.932 76.691 C 220.570 76.105,217.273 76.119,216.000 76.712 C 212.941 78.138,212.393 82.688,215.062 84.506 C 215.767 84.986,215.759 85.151,215.014 85.529 C 213.465 86.317,213.140 87.740,214.250 88.883 C 215.009 89.664,214.991 89.756,213.999 90.183 C 210.774 91.570,211.671 95.356,215.500 96.522 C 217.116 97.014,220.954 96.790,222.500 96.113 C 225.511 94.796,226.051 90.799,223.417 89.321 C 222.648 88.890,222.364 88.839,219.750 88.667 C 215.862 88.410,215.500 88.282,215.500 87.159 C 215.500 86.180,216.097 85.833,217.784 85.832 C 221.496 85.830,223.509 84.232,223.556 81.247 C 223.576 79.999,223.295 79.152,222.674 78.590 C 222.192 78.154,222.243 77.962,223.001 77.353 C 223.686 76.802,224.333 75.756,224.333 75.200 C 224.333 74.656,222.746 74.208,222.592 74.708 M136.500 76.404 C 130.776 77.673,129.627 87.716,134.913 90.274 C 137.918 91.728,142.051 90.803,143.349 88.386 C 143.933 87.299,142.501 86.733,141.728 87.745 C 140.975 88.730,139.939 89.188,138.434 89.201 C 135.729 89.223,134.382 88.134,133.819 85.473 C 133.488 83.905,133.141 84.011,138.785 83.961 L 143.750 83.917 143.750 82.250 C 143.750 77.787,140.841 75.442,136.500 76.404 M153.172 76.368 C 152.308 76.560,151.307 77.210,150.556 78.066 C 149.829 78.894,149.690 78.828,149.633 77.625 L 149.583 76.583 148.708 76.533 L 147.833 76.483 147.833 83.575 L 147.833 90.667 148.750 90.667 L 149.667 90.667 149.668 87.292 C 149.671 79.791,150.543 77.981,154.158 77.965 C 157.196 77.952,157.490 78.641,157.496 85.792 L 157.500 90.667 158.500 90.667 L 159.500 90.667 159.500 85.978 C 159.500 80.182,159.345 79.050,158.365 77.717 C 157.462 76.487,155.235 75.909,153.172 76.368 M201.167 76.395 C 194.173 77.923,194.504 89.802,201.569 90.853 C 202.831 91.040,205.070 90.830,205.408 90.492 C 205.495 90.405,205.704 90.333,205.872 90.333 C 206.285 90.333,208.219 88.394,208.532 87.667 C 209.224 86.059,209.250 85.912,209.244 83.583 C 209.229 78.197,206.014 75.336,201.167 76.395 M241.014 76.366 C 239.870 76.622,238.793 77.369,238.128 78.371 C 237.752 78.937,237.500 78.583,237.500 77.490 L 237.500 76.500 236.583 76.500 L 235.667 76.500 235.667 83.583 L 235.667 90.667 236.571 90.667 L 237.476 90.667 237.534 86.125 C 237.620 79.454,238.424 77.990,242.015 77.967 C 245.016 77.948,245.217 78.401,245.297 85.375 L 245.358 90.667 246.262 90.667 L 247.167 90.667 247.167 85.306 C 247.167 79.231,247.074 78.611,246.002 77.507 C 244.892 76.365,242.982 75.928,241.014 76.366 M125.333 83.583 L 125.333 90.667 126.250 90.667 L 127.167 90.667 127.167 83.583 L 127.167 76.500 126.250 76.500 L 125.333 76.500 125.333 83.583 M228.500 83.583 L 228.500 90.667 229.417 90.667 L 230.333 90.667 230.333 83.583 L 230.333 76.500 229.417 76.500 L 228.500 76.500 228.500 83.583 M139.867 78.177 C 140.934 78.726,141.484 79.531,141.837 81.062 C 142.172 82.512,142.203 82.501,137.843 82.497 C 133.689 82.494,133.745 82.511,133.900 81.343 C 134.256 78.658,137.479 76.948,139.867 78.177 M220.339 78.278 C 222.138 79.175,222.184 82.658,220.410 83.694 C 218.495 84.812,215.889 83.903,215.335 81.923 C 214.539 79.081,217.552 76.887,220.339 78.278 M204.567 78.254 C 208.299 79.813,208.284 87.334,204.545 88.927 C 202.934 89.614,200.524 89.102,199.472 87.849 C 197.856 85.924,197.856 81.243,199.472 79.318 C 200.500 78.093,202.955 77.580,204.567 78.254 M219.990 90.507 C 222.917 90.807,223.756 91.692,222.832 93.503 C 221.631 95.858,215.242 95.751,214.235 93.360 C 213.254 91.029,215.281 90.024,219.990 90.507 " stroke="none" fill="#f8f8f8" fill-rule="evenodd"></path><path id="path2" d="M283.178 79.550 C 281.145 80.037,280.835 80.979,280.834 86.682 C 280.833 92.176,280.955 92.704,282.455 93.693 C 282.885 93.977,283.437 93.998,290.517 93.999 L 298.117 94.000 298.780 93.519 C 299.979 92.651,300.000 92.534,300.000 86.639 L 300.000 81.411 299.580 80.793 C 298.648 79.420,298.169 79.346,290.417 79.361 C 286.460 79.368,283.628 79.442,283.178 79.550 " stroke="none" fill="#fbac34" fill-rule="evenodd"></path><path id="path3" d="M282.663 79.389 C 281.955 79.717,281.574 80.054,281.104 80.768 L 280.653 81.453 280.702 86.852 L 280.750 92.250 281.248 92.942 C 282.305 94.410,282.828 94.498,290.417 94.496 C 300.566 94.494,300.222 94.750,300.303 87.142 C 300.368 81.045,300.138 80.161,298.284 79.366 C 297.632 79.087,283.269 79.108,282.663 79.389 M297.667 79.554 C 298.725 79.844,299.100 80.087,299.580 80.793 L 300.000 81.411 300.000 86.639 C 300.000 92.534,299.979 92.651,298.780 93.519 L 298.117 94.000 290.517 93.999 C 283.437 93.998,282.885 93.977,282.455 93.693 C 280.955 92.704,280.833 92.176,280.834 86.682 C 280.836 79.119,280.494 79.380,290.417 79.361 C 295.089 79.352,297.127 79.406,297.667 79.554 " stroke="none" fill="#ccac73" fill-rule="evenodd"></path><path id="path4" d="M117.367 70.533 C 117.073 70.827,117.081 88.053,117.375 89.034 C 118.098 91.448,122.985 92.321,122.317 89.917 C 122.057 88.979,121.913 88.854,121.202 88.949 C 120.734 89.012,120.472 88.944,120.125 88.670 L 119.667 88.309 119.667 79.521 C 119.667 72.908,119.617 70.684,119.467 70.533 C 119.207 70.274,117.626 70.274,117.367 70.533 M125.535 70.577 C 123.942 71.456,124.524 73.667,126.349 73.667 C 128.128 73.667,128.591 71.402,126.977 70.597 C 126.363 70.290,126.061 70.286,125.535 70.577 M228.455 70.845 C 227.165 71.909,227.832 73.667,229.525 73.667 C 231.332 73.667,231.797 71.426,230.165 70.582 C 229.468 70.222,229.152 70.271,228.455 70.845 M265.618 70.437 C 265.553 70.502,265.500 75.756,265.500 82.111 L 265.500 93.667 266.584 93.667 L 267.669 93.667 267.626 82.042 L 267.583 70.417 266.660 70.368 C 266.152 70.341,265.683 70.372,265.618 70.437 M119.178 70.839 C 119.490 71.006,119.500 71.281,119.500 79.757 C 119.500 89.756,119.377 89.007,121.045 89.167 L 121.917 89.250 122.011 89.960 L 122.106 90.670 121.434 90.851 C 119.754 91.304,117.861 90.246,117.608 88.712 C 117.467 87.863,117.471 70.918,117.611 70.778 C 117.783 70.606,118.818 70.647,119.178 70.839 M127.421 71.223 C 127.818 71.791,127.731 72.623,127.226 73.091 C 125.982 74.244,124.062 72.521,125.145 71.223 C 125.653 70.615,126.995 70.615,127.421 71.223 M230.542 71.132 C 230.992 71.522,230.928 72.587,230.424 73.091 C 229.226 74.289,227.291 72.613,228.337 71.284 C 228.841 70.642,229.895 70.569,230.542 71.132 M267.500 82.083 L 267.500 93.500 266.583 93.500 L 265.667 93.500 265.667 82.194 C 265.667 75.976,265.717 70.839,265.778 70.778 C 265.839 70.717,266.251 70.667,266.694 70.667 L 267.500 70.667 267.500 82.083 M105.083 71.362 C 103.108 71.763,101.947 72.390,100.477 73.850 C 96.750 77.550,97.077 86.142,101.064 89.304 C 105.062 92.476,111.369 91.623,113.271 87.654 C 114.075 85.977,114.077 85.963,113.559 85.550 C 112.569 84.761,111.500 85.004,111.500 86.018 C 111.500 86.192,111.425 86.333,111.333 86.333 C 111.242 86.333,111.167 86.430,111.167 86.549 C 111.167 86.925,110.033 87.983,109.210 88.373 C 108.286 88.812,104.864 88.930,104.470 88.537 C 104.358 88.425,104.132 88.333,103.967 88.333 C 103.802 88.333,103.667 88.275,103.667 88.205 C 103.667 88.134,103.423 87.942,103.125 87.778 C 102.608 87.493,101.667 86.344,101.667 85.998 C 101.667 85.907,101.610 85.833,101.542 85.833 C 101.400 85.833,100.948 84.363,100.679 83.029 C 100.077 80.043,101.093 76.393,102.965 74.822 C 105.361 72.810,110.228 73.435,111.400 75.906 C 111.750 76.643,112.272 76.691,113.094 76.064 C 114.442 75.035,112.808 72.881,109.750 71.654 C 108.898 71.313,106.169 71.142,105.083 71.362 M109.667 71.945 C 111.143 72.423,112.272 73.261,113.044 74.455 C 113.635 75.368,113.627 75.416,112.802 75.936 L 112.105 76.377 111.800 75.980 C 110.136 73.812,109.359 73.419,106.753 73.432 C 102.542 73.454,100.333 76.143,100.333 81.250 C 100.333 86.038,102.410 88.783,106.288 89.121 C 108.721 89.333,110.721 88.211,111.738 86.062 C 111.976 85.560,112.226 85.178,112.294 85.213 C 112.361 85.249,112.698 85.406,113.042 85.563 C 113.795 85.908,113.803 86.008,113.171 87.271 C 112.603 88.408,111.475 89.609,110.551 90.060 C 110.202 90.231,109.794 90.432,109.644 90.508 C 108.643 91.014,104.689 91.014,103.689 90.508 C 103.539 90.432,103.042 90.193,102.585 89.977 C 96.860 87.271,96.530 76.382,102.064 72.805 C 103.982 71.566,107.324 71.188,109.667 71.945 M182.278 71.611 C 182.217 71.672,182.167 76.023,182.167 81.280 L 182.167 90.838 188.042 90.794 L 193.917 90.750 193.967 89.979 C 194.053 88.649,194.116 88.667,189.155 88.667 L 184.833 88.667 184.833 80.511 C 184.833 71.017,184.908 71.500,183.449 71.500 C 182.866 71.500,182.339 71.550,182.278 71.611 M184.293 80.151 C 184.323 86.018,184.392 88.620,184.522 88.776 C 184.668 88.953,185.628 89.000,189.086 89.000 C 193.925 89.000,193.667 88.938,193.667 90.097 L 193.667 90.667 188.000 90.667 L 182.333 90.667 182.333 81.489 C 182.333 71.202,182.284 71.623,183.469 71.700 L 184.250 71.750 184.293 80.151 M165.638 73.048 C 164.728 73.246,164.672 73.365,164.669 75.125 L 164.667 76.333 163.500 76.333 L 162.333 76.333 162.333 77.232 C 162.333 78.271,162.414 78.333,163.750 78.333 L 164.640 78.333 164.714 83.125 C 164.813 89.490,165.129 90.358,167.599 91.051 C 169.407 91.558,171.861 91.037,172.234 90.066 C 172.459 89.479,171.482 88.074,171.108 88.448 C 170.647 88.909,169.221 89.102,168.419 88.811 C 167.386 88.438,167.333 88.158,167.333 82.986 L 167.333 78.333 169.405 78.333 C 171.827 78.333,172.049 78.227,171.967 77.105 L 171.917 76.417 169.625 76.370 L 167.333 76.324 167.333 74.842 C 167.333 72.676,167.337 72.679,165.638 73.048 M166.965 74.745 C 167.025 76.573,166.909 76.494,169.551 76.497 L 171.686 76.500 171.635 77.208 L 171.583 77.917 169.377 77.963 C 167.210 78.009,167.169 78.017,167.071 78.406 C 166.816 79.423,167.076 87.906,167.376 88.347 C 167.986 89.245,169.401 89.488,170.726 88.922 C 171.080 88.771,171.386 88.670,171.407 88.699 C 172.226 89.829,172.197 90.098,171.208 90.538 C 169.375 91.353,166.731 90.895,165.858 89.610 C 165.150 88.570,165.138 88.470,165.023 83.083 L 164.917 78.083 163.750 78.000 L 162.583 77.917 162.532 77.208 L 162.481 76.500 163.477 76.500 C 164.969 76.500,165.000 76.474,165.002 75.191 C 165.006 73.364,165.158 73.165,166.500 73.230 C 166.908 73.250,166.918 73.281,166.965 74.745 M222.333 74.757 C 222.333 75.627,221.513 76.837,221.118 76.549 C 219.018 75.022,214.768 76.262,213.593 78.744 C 213.141 79.699,212.962 82.354,213.333 82.583 C 213.425 82.640,213.500 82.837,213.500 83.021 C 213.500 83.205,213.903 83.758,214.396 84.251 L 215.293 85.148 214.769 85.397 C 214.025 85.750,213.534 86.336,213.497 86.917 C 213.418 88.149,213.505 88.531,213.975 89.001 C 214.522 89.547,214.492 89.629,213.583 90.083 C 211.143 91.304,211.190 94.179,213.682 96.050 C 214.012 96.298,214.428 96.500,214.607 96.500 C 214.787 96.500,215.005 96.564,215.092 96.643 C 215.643 97.140,220.454 97.169,221.750 96.683 C 224.226 95.754,225.333 94.377,225.333 92.225 C 225.333 89.398,223.581 88.333,218.927 88.333 C 216.766 88.333,216.675 88.319,216.179 87.902 C 215.056 86.957,215.772 86.081,217.635 86.119 C 222.497 86.221,225.641 82.042,223.141 78.801 C 222.544 78.027,222.540 78.057,223.323 77.387 C 224.365 76.495,224.849 75.082,224.300 74.533 C 223.874 74.107,222.333 74.282,222.333 74.757 M223.909 74.693 C 224.664 75.037,224.203 76.387,223.001 77.353 C 222.243 77.962,222.192 78.154,222.674 78.590 C 223.295 79.152,223.576 79.999,223.556 81.247 C 223.509 84.232,221.496 85.830,217.784 85.832 C 216.097 85.833,215.500 86.180,215.500 87.159 C 215.500 88.282,215.862 88.410,219.750 88.667 C 223.764 88.931,225.167 89.867,225.167 92.279 C 225.167 97.454,213.834 98.764,212.264 93.770 C 211.747 92.128,212.343 90.895,213.999 90.183 C 214.991 89.756,215.009 89.664,214.250 88.883 C 213.140 87.740,213.465 86.317,215.014 85.529 C 215.759 85.151,215.767 84.986,215.062 84.506 C 212.393 82.688,212.941 78.138,216.000 76.712 C 217.273 76.119,220.570 76.105,220.932 76.691 C 221.257 77.218,222.199 76.405,222.420 75.407 C 222.479 75.137,222.557 74.823,222.592 74.708 C 222.673 74.447,223.351 74.439,223.909 74.693 M137.167 76.022 C 136.181 76.137,135.964 76.199,134.874 76.686 C 134.223 76.977,133.298 77.773,132.661 78.592 C 131.050 80.661,130.923 85.700,132.415 88.260 C 134.413 91.686,139.937 92.362,142.783 89.529 C 144.024 88.294,144.146 87.763,143.308 87.234 C 142.275 86.582,142.239 86.585,141.692 87.380 C 140.513 89.094,138.044 89.519,135.917 88.374 C 135.300 88.042,134.506 87.173,134.503 86.825 C 134.501 86.683,134.422 86.488,134.326 86.393 C 134.231 86.297,134.137 85.776,134.118 85.235 L 134.083 84.250 138.903 84.206 C 142.365 84.174,143.790 84.105,143.965 83.960 C 144.266 83.710,144.168 80.702,143.833 79.917 C 143.716 79.642,143.509 79.162,143.374 78.852 C 142.529 76.905,139.894 75.704,137.167 76.022 M153.917 75.961 C 152.754 76.083,151.494 76.699,150.772 77.498 C 150.014 78.337,150.027 78.341,149.967 77.292 L 149.917 76.417 148.750 76.417 L 147.583 76.417 147.583 83.583 L 147.583 90.750 148.773 90.799 L 149.963 90.847 150.049 86.132 C 150.147 80.768,150.205 80.461,151.333 79.333 C 152.920 77.747,155.813 77.747,156.742 79.333 C 157.062 79.880,157.089 80.258,157.167 85.333 L 157.250 90.750 158.458 90.799 L 159.667 90.848 159.667 85.477 C 159.667 80.244,159.639 79.893,159.110 78.426 C 158.522 76.798,156.245 75.717,153.917 75.961 M202.000 75.964 C 199.166 76.216,196.812 78.245,196.254 80.917 C 195.778 83.199,195.763 84.470,196.192 86.083 C 197.230 89.977,200.595 92.027,204.393 91.077 C 207.905 90.199,209.591 87.755,209.562 83.583 C 209.526 78.453,206.647 75.551,202.000 75.964 M241.583 75.969 C 241.217 75.998,240.845 76.092,240.758 76.178 C 240.671 76.263,240.427 76.333,240.217 76.333 C 240.006 76.333,239.833 76.408,239.833 76.500 C 239.833 76.592,239.730 76.667,239.603 76.667 C 239.476 76.667,238.988 77.054,238.519 77.528 L 237.667 78.390 237.667 77.354 L 237.667 76.318 236.542 76.367 L 235.417 76.417 235.417 83.583 L 235.417 90.750 236.583 90.750 L 237.750 90.750 237.843 86.083 C 237.893 83.517,237.995 81.267,238.069 81.083 C 238.142 80.900,238.311 80.506,238.443 80.207 C 239.464 77.904,243.509 77.381,244.569 79.417 C 244.894 80.040,244.922 80.427,245.000 85.417 L 245.083 90.750 246.250 90.750 L 247.417 90.750 247.402 85.083 C 247.385 78.846,247.361 78.684,246.232 77.342 C 245.406 76.360,243.544 75.810,241.583 75.969 M139.516 76.392 C 142.420 76.954,143.750 78.794,143.750 82.250 L 143.750 83.917 138.785 83.961 C 133.141 84.011,133.488 83.905,133.819 85.473 C 134.382 88.134,135.729 89.223,138.434 89.201 C 139.939 89.188,140.975 88.730,141.728 87.745 C 142.262 87.045,142.276 87.039,142.804 87.261 C 144.572 88.005,142.281 90.429,139.406 90.856 C 134.562 91.577,131.673 88.866,131.668 83.595 C 131.664 78.341,134.785 75.476,139.516 76.392 M155.806 76.355 C 157.070 76.575,157.820 76.974,158.365 77.717 C 159.345 79.050,159.500 80.182,159.500 85.978 L 159.500 90.667 158.500 90.667 L 157.500 90.667 157.496 85.792 C 157.490 78.641,157.196 77.952,154.158 77.965 C 150.543 77.981,149.671 79.791,149.668 87.292 L 149.667 90.667 148.750 90.667 L 147.833 90.667 147.833 83.575 L 147.833 76.483 148.708 76.533 L 149.583 76.583 149.633 77.625 C 149.690 78.828,149.829 78.894,150.556 78.066 C 151.972 76.453,153.503 75.954,155.806 76.355 M204.094 76.343 C 207.611 76.968,209.232 79.248,209.244 83.583 C 209.250 85.912,209.224 86.059,208.532 87.667 C 208.219 88.394,206.285 90.333,205.872 90.333 C 205.704 90.333,205.495 90.405,205.408 90.492 C 205.321 90.579,204.695 90.737,204.017 90.842 C 200.049 91.458,197.008 89.333,196.353 85.486 C 195.337 79.515,198.818 75.404,204.094 76.343 M243.594 76.340 C 246.794 76.899,247.167 77.835,247.167 85.306 L 247.167 90.667 246.262 90.667 L 245.358 90.667 245.297 85.375 C 245.217 78.401,245.016 77.948,242.015 77.967 C 238.424 77.990,237.620 79.454,237.534 86.125 L 237.476 90.667 236.571 90.667 L 235.667 90.667 235.667 83.583 L 235.667 76.500 236.583 76.500 L 237.500 76.500 237.500 77.490 C 237.500 78.583,237.752 78.937,238.128 78.371 C 239.282 76.633,241.199 75.921,243.594 76.340 M125.167 83.576 L 125.167 90.833 126.335 90.833 L 127.504 90.833 127.460 83.625 L 127.417 76.417 126.292 76.367 L 125.167 76.318 125.167 83.576 M228.333 83.583 L 228.333 90.848 229.542 90.799 L 230.750 90.750 230.750 83.583 L 230.750 76.417 229.542 76.368 L 228.333 76.319 228.333 83.583 M127.167 83.583 L 127.167 90.667 126.250 90.667 L 125.333 90.667 125.333 83.583 L 125.333 76.500 126.250 76.500 L 127.167 76.500 127.167 83.583 M230.333 83.583 L 230.333 90.667 229.417 90.667 L 228.500 90.667 228.500 83.583 L 228.500 76.500 229.417 76.500 L 230.333 76.500 230.333 83.583 M136.687 77.990 C 135.263 78.353,134.113 79.736,133.900 81.343 C 133.745 82.511,133.689 82.494,137.843 82.497 C 142.203 82.501,142.172 82.512,141.837 81.062 C 141.245 78.497,139.286 77.328,136.687 77.990 M217.667 77.939 C 214.612 78.485,214.356 83.198,217.337 84.001 C 219.824 84.672,221.667 83.418,221.667 81.055 C 221.667 78.739,220.085 77.508,217.667 77.939 M200.698 78.365 C 197.343 79.991,197.398 87.240,200.778 88.829 C 202.393 89.588,204.497 89.270,205.830 88.067 C 207.798 86.289,207.798 80.878,205.830 79.100 C 204.539 77.934,202.260 77.608,200.698 78.365 M139.877 78.499 C 141.016 79.034,141.635 80.342,141.515 81.958 C 141.504 82.118,140.647 82.167,137.833 82.167 C 134.045 82.167,134.084 82.174,134.152 81.500 C 134.424 78.816,137.321 77.298,139.877 78.499 M204.282 78.420 C 207.543 79.123,208.105 86.989,204.998 88.445 C 201.344 90.158,198.500 88.030,198.500 83.583 C 198.500 81.022,199.764 78.507,201.056 78.497 C 201.254 78.496,201.529 78.419,201.667 78.326 C 201.918 78.156,203.288 78.206,204.282 78.420 M220.042 78.438 C 223.487 80.220,220.627 85.183,217.050 83.631 C 215.087 82.780,215.054 79.290,217.000 78.383 C 217.634 78.088,219.427 78.120,220.042 78.438 M215.387 90.667 C 213.221 91.630,213.738 94.179,216.246 94.908 C 220.175 96.051,224.298 93.941,222.833 91.538 C 222.180 90.467,217.157 89.880,215.387 90.667 M222.033 91.141 C 223.391 91.722,222.981 93.680,221.336 94.469 C 220.487 94.876,216.508 94.874,215.658 94.466 C 213.920 93.633,213.940 91.260,215.688 90.827 C 216.604 90.601,221.315 90.833,222.033 91.141 " stroke="none" fill="#cccccc" fill-rule="evenodd"></path></g></svg>