<svg xmlns="http://www.w3.org/2000/svg" xmlns:xlink="http://www.w3.org/1999/xlink" width="600" zoomAndPan="magnify" viewBox="0 0 450 149.999998" height="200" preserveAspectRatio="xMidYMid meet" version="1.0"><defs><clipPath id="084637904a"><path d="M 0 5.453125 L 139 5.453125 L 139 143.25 L 0 143.25 Z M 0 5.453125 " clip-rule="nonzero"/></clipPath></defs><path fill="#6699cc" d="M 61.960938 128.605469 L 391.589844 128.605469 C 421.546875 128.605469 445.832031 104.320312 445.832031 74.363281 C 445.832031 44.40625 421.546875 20.121094 391.589844 20.121094 L 61.960938 20.121094 Z M 61.960938 128.605469 " fill-opacity="1" fill-rule="nonzero"/><g clip-path="url(#084637904a)"><path fill="#ffffff" d="M 138.28125 74.363281 C 138.28125 75.496094 138.253906 76.625 138.199219 77.753906 C 138.144531 78.882812 138.0625 80.011719 137.949219 81.136719 C 137.839844 82.261719 137.699219 83.382812 137.535156 84.503906 C 137.367188 85.621094 137.175781 86.734375 136.953125 87.84375 C 136.734375 88.953125 136.488281 90.058594 136.210938 91.15625 C 135.9375 92.253906 135.636719 93.34375 135.308594 94.425781 C 134.980469 95.507812 134.625 96.582031 134.242188 97.644531 C 133.863281 98.710938 133.457031 99.765625 133.023438 100.808594 C 132.589844 101.855469 132.132812 102.886719 131.648438 103.910156 C 131.164062 104.933594 130.65625 105.941406 130.121094 106.941406 C 129.589844 107.9375 129.03125 108.921875 128.449219 109.890625 C 127.871094 110.863281 127.265625 111.816406 126.636719 112.757812 C 126.007812 113.699219 125.355469 114.621094 124.683594 115.53125 C 124.007812 116.4375 123.3125 117.332031 122.597656 118.203125 C 121.878906 119.078125 121.140625 119.933594 120.378906 120.773438 C 119.621094 121.613281 118.839844 122.429688 118.042969 123.230469 C 117.242188 124.03125 116.421875 124.808594 115.585938 125.570312 C 114.746094 126.328125 113.890625 127.066406 113.015625 127.785156 C 112.140625 128.503906 111.25 129.199219 110.34375 129.871094 C 109.433594 130.546875 108.507812 131.195312 107.570312 131.824219 C 106.628906 132.453125 105.671875 133.058594 104.703125 133.640625 C 103.734375 134.222656 102.75 134.777344 101.753906 135.3125 C 100.753906 135.84375 99.746094 136.351562 98.722656 136.835938 C 97.699219 137.320312 96.667969 137.777344 95.621094 138.210938 C 94.578125 138.644531 93.519531 139.050781 92.457031 139.433594 C 91.390625 139.8125 90.316406 140.167969 89.234375 140.496094 C 88.152344 140.824219 87.0625 141.125 85.964844 141.398438 C 84.871094 141.675781 83.765625 141.921875 82.65625 142.144531 C 81.546875 142.363281 80.433594 142.558594 79.316406 142.722656 C 78.195312 142.890625 77.074219 143.027344 75.949219 143.140625 C 74.824219 143.25 73.695312 143.332031 72.566406 143.386719 C 71.4375 143.445312 70.304688 143.472656 69.175781 143.472656 C 68.042969 143.472656 66.914062 143.445312 65.785156 143.386719 C 64.652344 143.332031 63.527344 143.25 62.402344 143.140625 C 61.273438 143.027344 60.152344 142.890625 59.035156 142.722656 C 57.914062 142.558594 56.800781 142.363281 55.691406 142.144531 C 54.582031 141.921875 53.480469 141.675781 52.382812 141.398438 C 51.285156 141.125 50.195312 140.824219 49.113281 140.496094 C 48.03125 140.167969 46.957031 139.8125 45.894531 139.433594 C 44.828125 139.050781 43.773438 138.644531 42.726562 138.210938 C 41.683594 137.777344 40.648438 137.320312 39.628906 136.835938 C 38.605469 136.351562 37.59375 135.84375 36.597656 135.3125 C 35.601562 134.777344 34.617188 134.222656 33.644531 133.640625 C 32.675781 133.058594 31.71875 132.453125 30.78125 131.824219 C 29.839844 131.195312 28.914062 130.546875 28.007812 129.871094 C 27.097656 129.199219 26.207031 128.503906 25.332031 127.785156 C 24.457031 127.066406 23.601562 126.328125 22.765625 125.570312 C 21.925781 124.808594 21.105469 124.03125 20.308594 123.230469 C 19.507812 122.429688 18.726562 121.613281 17.96875 120.773438 C 17.210938 119.933594 16.46875 119.078125 15.753906 118.203125 C 15.035156 117.332031 14.339844 116.4375 13.667969 115.53125 C 12.992188 114.621094 12.339844 113.699219 11.714844 112.757812 C 11.085938 111.816406 10.480469 110.863281 9.898438 109.890625 C 9.316406 108.921875 8.757812 107.9375 8.226562 106.941406 C 7.695312 105.941406 7.183594 104.933594 6.703125 103.910156 C 6.21875 102.886719 5.757812 101.855469 5.328125 100.808594 C 4.894531 99.765625 4.488281 98.710938 4.105469 97.644531 C 3.726562 96.582031 3.371094 95.507812 3.042969 94.425781 C 2.714844 93.34375 2.414062 92.253906 2.136719 91.15625 C 1.863281 90.058594 1.613281 88.953125 1.394531 87.84375 C 1.171875 86.734375 0.980469 85.621094 0.8125 84.503906 C 0.648438 83.382812 0.511719 82.261719 0.398438 81.136719 C 0.289062 80.011719 0.203125 78.882812 0.148438 77.753906 C 0.09375 76.625 0.0664062 75.496094 0.0664062 74.363281 C 0.0664062 73.230469 0.09375 72.101562 0.148438 70.972656 C 0.203125 69.84375 0.289062 68.714844 0.398438 67.589844 C 0.511719 66.464844 0.648438 65.339844 0.8125 64.222656 C 0.980469 63.105469 1.171875 61.988281 1.394531 60.878906 C 1.613281 59.773438 1.863281 58.667969 2.136719 57.570312 C 2.414062 56.472656 2.714844 55.382812 3.042969 54.300781 C 3.371094 53.21875 3.726562 52.144531 4.105469 51.082031 C 4.488281 50.015625 4.894531 48.960938 5.328125 47.917969 C 5.757812 46.871094 6.21875 45.839844 6.703125 44.816406 C 7.183594 43.792969 7.695312 42.785156 8.226562 41.785156 C 8.757812 40.789062 9.316406 39.804688 9.898438 38.835938 C 10.480469 37.863281 11.085938 36.910156 11.714844 35.96875 C 12.339844 35.027344 12.992188 34.105469 13.667969 33.195312 C 14.339844 32.285156 15.035156 31.394531 15.753906 30.519531 C 16.46875 29.648438 17.210938 28.789062 17.96875 27.953125 C 18.726562 27.113281 19.507812 26.296875 20.308594 25.496094 C 21.105469 24.695312 21.925781 23.917969 22.765625 23.15625 C 23.601562 22.398438 24.457031 21.660156 25.332031 20.941406 C 26.207031 20.222656 27.097656 19.527344 28.007812 18.855469 C 28.914062 18.179688 29.839844 17.53125 30.78125 16.902344 C 31.71875 16.273438 32.675781 15.667969 33.644531 15.085938 C 34.617188 14.503906 35.601562 13.949219 36.597656 13.414062 C 37.59375 12.882812 38.605469 12.375 39.628906 11.890625 C 40.648438 11.40625 41.683594 10.949219 42.726562 10.515625 C 43.773438 10.082031 44.828125 9.675781 45.894531 9.292969 C 46.957031 8.914062 48.03125 8.558594 49.113281 8.230469 C 50.195312 7.902344 51.285156 7.601562 52.382812 7.324219 C 53.480469 7.050781 54.582031 6.804688 55.691406 6.582031 C 56.800781 6.363281 57.914062 6.167969 59.035156 6.003906 C 60.152344 5.835938 61.273438 5.699219 62.402344 5.585938 C 63.527344 5.476562 64.652344 5.394531 65.785156 5.339844 C 66.914062 5.28125 68.042969 5.253906 69.175781 5.253906 C 70.304688 5.253906 71.4375 5.28125 72.566406 5.339844 C 73.695312 5.394531 74.824219 5.476562 75.949219 5.585938 C 77.074219 5.699219 78.195312 5.835938 79.316406 6.003906 C 80.433594 6.167969 81.546875 6.363281 82.65625 6.582031 C 83.765625 6.804688 84.871094 7.050781 85.964844 7.324219 C 87.0625 7.601562 88.152344 7.902344 89.234375 8.230469 C 90.316406 8.558594 91.390625 8.914062 92.457031 9.292969 C 93.519531 9.675781 94.578125 10.082031 95.621094 10.515625 C 96.667969 10.949219 97.699219 11.40625 98.722656 11.890625 C 99.746094 12.375 100.753906 12.882812 101.753906 13.414062 C 102.75 13.949219 103.734375 14.503906 104.703125 15.085938 C 105.671875 15.667969 106.628906 16.273438 107.570312 16.902344 C 108.507812 17.53125 109.433594 18.179688 110.34375 18.855469 C 111.25 19.527344 112.140625 20.222656 113.015625 20.941406 C 113.890625 21.660156 114.746094 22.398438 115.585938 23.15625 C 116.421875 23.917969 117.242188 24.695312 118.042969 25.496094 C 118.839844 26.296875 119.621094 27.113281 120.378906 27.953125 C 121.140625 28.789062 121.878906 29.648438 122.597656 30.519531 C 123.3125 31.394531 124.007812 32.285156 124.683594 33.195312 C 125.355469 34.105469 126.007812 35.027344 126.636719 35.96875 C 127.265625 36.910156 127.871094 37.863281 128.449219 38.835938 C 129.03125 39.804688 129.589844 40.789062 130.121094 41.785156 C 130.65625 42.785156 131.164062 43.792969 131.648438 44.816406 C 132.132812 45.839844 132.589844 46.871094 133.023438 47.917969 C 133.457031 48.960938 133.863281 50.015625 134.242188 51.082031 C 134.625 52.144531 134.980469 53.21875 135.308594 54.300781 C 135.636719 55.382812 135.9375 56.472656 136.210938 57.570312 C 136.488281 58.667969 136.734375 59.773438 136.953125 60.878906 C 137.175781 61.988281 137.367188 63.105469 137.535156 64.222656 C 137.699219 65.339844 137.839844 66.464844 137.949219 67.589844 C 138.0625 68.714844 138.144531 69.84375 138.199219 70.972656 C 138.253906 72.101562 138.28125 73.230469 138.28125 74.363281 Z M 138.28125 74.363281 " fill-opacity="1" fill-rule="nonzero"/></g><path fill="#6699cc" d="M 69.175781 135.472656 C 35.476562 135.472656 8.0625 108.058594 8.0625 74.363281 C 8.0625 40.667969 35.476562 13.253906 69.175781 13.253906 C 102.871094 13.253906 130.285156 40.667969 130.285156 74.363281 C 130.285156 108.058594 102.875 135.472656 69.175781 135.472656 Z M 69.175781 14.992188 C 36.4375 14.992188 9.800781 41.625 9.800781 74.363281 C 9.800781 107.101562 36.4375 133.734375 69.175781 133.734375 C 101.914062 133.734375 128.546875 107.101562 128.546875 74.363281 C 128.546875 41.625 101.910156 14.992188 69.175781 14.992188 Z M 69.175781 14.992188 " fill-opacity="1" fill-rule="nonzero"/><path fill="#fffaf3" d="M 219.828125 85.476562 L 219.828125 94.210938 L 196.574219 94.210938 L 196.574219 54.515625 L 205.644531 54.515625 L 205.644531 85.476562 Z M 219.828125 85.476562 " fill-opacity="1" fill-rule="nonzero"/><path fill="#fffaf3" d="M 219.828125 74.363281 C 219.828125 62.679688 229.074219 53.71875 240.472656 53.71875 C 251.871094 53.71875 261.113281 62.6875 261.113281 74.363281 C 261.113281 86.039062 251.871094 95.007812 240.472656 95.007812 C 229.074219 95.007812 219.828125 86.046875 219.828125 74.363281 Z M 252.039062 74.363281 C 252.039062 67.273438 246.9375 62.566406 240.472656 62.566406 C 234.007812 62.566406 228.902344 67.277344 228.902344 74.363281 C 228.902344 81.449219 234.007812 86.160156 240.472656 86.160156 C 246.9375 86.160156 252.039062 81.453125 252.039062 74.363281 Z M 252.039062 74.363281 " fill-opacity="1" fill-rule="nonzero"/><path fill="#fffaf3" d="M 305.519531 75.496094 C 305.519531 87.632812 297.070312 95.007812 285.953125 95.007812 C 273.476562 95.007812 264.523438 85.820312 264.523438 74.417969 C 264.523438 62.90625 273.652344 53.71875 285.335938 53.71875 C 292.9375 53.71875 299.34375 57.464844 302.691406 62.792969 L 294.972656 67.21875 C 293.328125 64.609375 289.753906 62.570312 285.273438 62.570312 C 278.585938 62.570312 273.59375 67.503906 273.59375 74.480469 C 273.59375 81.226562 278.355469 86.160156 286.070312 86.160156 C 291.34375 86.160156 294.800781 83.835938 296.21875 80.035156 L 285.613281 80.035156 L 285.613281 72.097656 L 305.527344 72.097656 Z M 305.519531 75.496094 " fill-opacity="1" fill-rule="nonzero"/><path fill="#fffaf3" d="M 324.804688 54.515625 L 333.875 54.515625 L 333.875 94.210938 L 324.804688 94.210938 Z M 324.804688 54.515625 " fill-opacity="1" fill-rule="nonzero"/><path fill="#fffaf3" d="M 371.875 54.515625 L 371.875 94.210938 L 365.0625 94.210938 L 349.75 72.664062 L 349.75 94.210938 L 340.675781 94.210938 L 340.675781 54.515625 L 347.480469 54.515625 L 362.792969 76.0625 L 362.792969 54.515625 Z M 371.875 54.515625 " fill-opacity="1" fill-rule="nonzero"/><path fill="#6699cc" d="M 42.695312 106.035156 C 41.597656 105.53125 41.304688 104.65625 41.328125 103.480469 C 41.546875 92.117188 50.214844 82.011719 61.40625 80.179688 C 62.8125 79.960938 64.226562 79.84375 65.648438 79.824219 C 68.164062 79.769531 70.679688 79.730469 73.191406 79.824219 C 82.726562 80.175781 89.710938 84.699219 94.28125 92.992188 C 96.078125 96.257812 96.863281 99.824219 97.015625 103.542969 C 97.066406 104.699219 96.710938 105.539062 95.648438 106.035156 Z M 42.695312 106.035156 " fill-opacity="1" fill-rule="nonzero"/><path fill="#6699cc" d="M 70.535156 42.6875 C 71.796875 42.964844 73.09375 43.132812 74.316406 43.527344 C 81.585938 45.859375 86.441406 53.023438 85.847656 60.453125 C 85.21875 68.355469 79.535156 74.621094 71.847656 75.871094 C 71.289062 75.960938 70.722656 76.023438 70.15625 76.054688 C 69.589844 76.089844 69.023438 76.09375 68.457031 76.070312 C 67.890625 76.042969 67.324219 75.992188 66.761719 75.910156 C 66.199219 75.828125 65.644531 75.71875 65.09375 75.578125 C 64.542969 75.441406 64 75.273438 63.46875 75.078125 C 62.933594 74.886719 62.414062 74.664062 61.902344 74.417969 C 61.390625 74.167969 60.894531 73.898438 60.410156 73.597656 C 59.925781 73.300781 59.460938 72.980469 59.007812 72.632812 C 58.558594 72.289062 58.128906 71.917969 57.714844 71.53125 C 57.300781 71.140625 56.910156 70.730469 56.539062 70.300781 C 56.167969 69.871094 55.820312 69.421875 55.496094 68.957031 C 55.167969 68.492188 54.867188 68.011719 54.589844 67.515625 C 54.316406 67.019531 54.066406 66.511719 53.839844 65.988281 C 53.617188 65.46875 53.417969 64.9375 53.25 64.394531 C 53.078125 63.851562 52.9375 63.304688 52.820312 62.75 C 52.707031 62.191406 52.621094 61.632812 52.566406 61.066406 C 51.636719 51.972656 58.273438 43.765625 67.335938 42.796875 C 67.496094 42.773438 67.65625 42.734375 67.8125 42.6875 Z M 70.535156 42.6875 " fill-opacity="1" fill-rule="nonzero"/></svg>