<svg xmlns="http://www.w3.org/2000/svg" xmlns:xlink="http://www.w3.org/1999/xlink" width="400" zoomAndPan="magnify" viewBox="0 0 300 225" height="300" preserveAspectRatio="xMidYMid meet" version="1.0"><defs><clipPath id="771e8fd908"><path d="M 144 113 L 256.519531 113 L 256.519531 225 L 144 225 Z M 144 113 " clip-rule="nonzero"/></clipPath><clipPath id="5249333ce7"><path d="M 33.019531 1.792969 L 205 1.792969 L 205 225 L 33.019531 225 Z M 33.019531 1.792969 " clip-rule="nonzero"/></clipPath></defs><rect x="-30" width="360" fill="#ffffff" y="-22.5" height="270" fill-opacity="1"/><g clip-path="url(#771e8fd908)"><path fill="#6699cc" d="M 200.417969 224.988281 C 169.652344 224.988281 144.617188 199.953125 144.617188 169.191406 C 144.617188 138.425781 169.652344 113.390625 200.417969 113.390625 C 231.179688 113.390625 256.214844 138.425781 256.214844 169.191406 C 256.214844 199.953125 231.179688 224.988281 200.417969 224.988281 Z M 200.417969 120.832031 C 173.746094 120.832031 152.058594 142.519531 152.058594 169.191406 C 152.058594 195.863281 173.746094 217.546875 200.417969 217.546875 C 227.089844 217.546875 248.777344 195.863281 248.777344 169.191406 C 248.777344 142.519531 227.089844 120.832031 200.417969 120.832031 Z M 200.417969 120.832031 " fill-opacity="1" fill-rule="nonzero"/></g><g clip-path="url(#5249333ce7)"><path fill="#0a0f26" d="M 158.34375 224.988281 L 51.621094 224.988281 C 41.351562 224.988281 33.019531 216.65625 33.019531 206.390625 L 33.019531 20.394531 C 33.019531 10.125 41.351562 1.792969 51.621094 1.792969 L 185.539062 1.792969 C 195.804688 1.792969 204.136719 10.125 204.136719 20.394531 L 204.136719 102.230469 C 204.136719 104.277344 202.464844 105.949219 200.417969 105.949219 C 198.371094 105.949219 196.695312 104.277344 196.695312 102.230469 L 196.695312 20.394531 C 196.695312 14.253906 191.675781 9.234375 185.539062 9.234375 L 51.621094 9.234375 C 45.484375 9.234375 40.460938 14.253906 40.460938 20.394531 L 40.460938 206.390625 C 40.460938 212.527344 45.484375 217.546875 51.621094 217.546875 L 158.34375 217.546875 C 160.390625 217.546875 162.066406 219.222656 162.066406 221.269531 C 162.066406 223.3125 160.390625 224.988281 158.34375 224.988281 Z M 158.34375 224.988281 " fill-opacity="1" fill-rule="nonzero"/></g><path fill="#6699cc" d="M 189.257812 191.507812 C 188.289062 191.507812 187.359375 191.136719 186.617188 190.429688 L 171.738281 175.550781 C 170.285156 174.101562 170.285156 171.757812 171.738281 170.304688 C 173.1875 168.855469 175.53125 168.855469 176.980469 170.304688 L 189.21875 182.542969 L 223.777344 147.984375 C 225.230469 146.535156 227.574219 146.535156 229.023438 147.984375 C 230.472656 149.4375 230.472656 151.78125 229.023438 153.230469 L 191.824219 190.429688 C 191.082031 191.175781 190.148438 191.507812 189.183594 191.507812 Z M 189.257812 191.507812 " fill-opacity="1" fill-rule="nonzero"/><path fill="#0a0f26" d="M 170.65625 98.511719 L 66.5 98.511719 C 64.453125 98.511719 62.78125 96.835938 62.78125 94.792969 C 62.78125 92.746094 64.453125 91.070312 66.5 91.070312 L 170.65625 91.070312 C 172.703125 91.070312 174.378906 92.746094 174.378906 94.792969 C 174.378906 96.835938 172.703125 98.511719 170.65625 98.511719 Z M 170.65625 98.511719 " fill-opacity="1" fill-rule="nonzero"/><path fill="#0a0f26" d="M 148.339844 120.832031 L 66.5 120.832031 C 64.453125 120.832031 62.78125 119.15625 62.78125 117.109375 C 62.78125 115.066406 64.453125 113.390625 66.5 113.390625 L 148.339844 113.390625 C 150.382812 113.390625 152.058594 115.066406 152.058594 117.109375 C 152.058594 119.15625 150.382812 120.832031 148.339844 120.832031 Z M 148.339844 120.832031 " fill-opacity="1" fill-rule="nonzero"/><path fill="#0a0f26" d="M 126.019531 143.148438 L 66.5 143.148438 C 64.453125 143.148438 62.78125 141.476562 62.78125 139.429688 C 62.78125 137.382812 64.453125 135.710938 66.5 135.710938 L 126.019531 135.710938 C 128.066406 135.710938 129.738281 137.382812 129.738281 139.429688 C 129.738281 141.476562 128.066406 143.148438 126.019531 143.148438 Z M 126.019531 143.148438 " fill-opacity="1" fill-rule="nonzero"/><path fill="#6699cc" d="M 88.820312 27.832031 L 59.058594 27.832031 C 57.015625 27.832031 55.339844 29.507812 55.339844 31.550781 C 55.339844 33.597656 57.015625 35.273438 59.058594 35.273438 L 70.21875 35.273438 L 70.21875 68.75 C 70.21875 70.796875 71.894531 72.472656 73.941406 72.472656 C 75.984375 72.472656 77.660156 70.796875 77.660156 68.75 L 77.660156 35.273438 L 88.820312 35.273438 C 90.867188 35.273438 92.539062 33.597656 92.539062 31.550781 C 92.539062 29.507812 90.867188 27.832031 88.820312 27.832031 Z M 88.820312 27.832031 " fill-opacity="1" fill-rule="nonzero"/><path fill="#6699cc" d="M 122.039062 30.175781 C 121.480469 28.761719 120.105469 27.832031 118.578125 27.832031 C 117.054688 27.832031 115.675781 28.761719 115.121094 30.175781 L 100.238281 67.375 C 99.457031 69.273438 100.386719 71.429688 102.324219 72.210938 C 104.21875 72.957031 106.378906 72.0625 107.160156 70.128906 L 110.691406 61.3125 L 126.503906 61.3125 L 130.035156 70.128906 C 130.632812 71.578125 132.007812 72.472656 133.496094 72.472656 C 133.941406 72.472656 134.425781 72.398438 134.871094 72.210938 C 136.769531 71.429688 137.699219 69.273438 136.957031 67.375 L 122.074219 30.175781 Z M 113.667969 53.871094 L 118.578125 41.558594 L 123.488281 53.871094 L 113.632812 53.871094 Z M 113.667969 53.871094 " fill-opacity="1" fill-rule="nonzero"/><path fill="#6699cc" d="M 167.980469 50.152344 L 181 33.859375 C 182.265625 32.257812 182.003906 29.914062 180.402344 28.613281 C 178.804688 27.3125 176.460938 27.609375 175.160156 29.207031 L 163.179688 44.164062 L 151.203125 29.207031 C 149.902344 27.609375 147.59375 27.347656 145.957031 28.613281 C 144.359375 29.878906 144.097656 32.222656 145.363281 33.859375 L 158.382812 50.152344 L 145.363281 66.445312 C 144.097656 68.042969 144.359375 70.386719 145.957031 71.691406 C 146.628906 72.25 147.484375 72.507812 148.265625 72.507812 C 149.34375 72.507812 150.421875 72.023438 151.164062 71.09375 L 163.144531 56.140625 L 175.121094 71.09375 C 175.867188 72.023438 176.945312 72.507812 178.023438 72.507812 C 178.839844 72.507812 179.660156 72.25 180.328125 71.691406 C 181.929688 70.425781 182.191406 68.082031 180.925781 66.445312 L 167.90625 50.152344 Z M 167.980469 50.152344 " fill-opacity="1" fill-rule="nonzero"/></svg>