<svg xmlns="http://www.w3.org/2000/svg" xmlns:xlink="http://www.w3.org/1999/xlink" width="400" zoomAndPan="magnify" viewBox="0 0 300 225" height="300" preserveAspectRatio="xMidYMid meet" version="1.0"><defs><clipPath id="29009ed6db"><path d="M 29.832031 2.246094 L 262.320312 2.246094 L 262.320312 176 L 29.832031 176 Z M 29.832031 2.246094 " clip-rule="nonzero"/></clipPath></defs><path fill="#a0a0a0" d="M 186.992188 221.660156 C 185.84375 221.660156 184.789062 220.929688 184.410156 219.800781 L 107.675781 219.800781 C 106.253906 222.699219 101.757812 221.082031 102.59375 217.902344 C 108.886719 193.96875 99.203125 175.25 99.203125 172.949219 C 99.203125 169.898438 103.4375 169.207031 104.492188 172.039062 L 187.640625 172.039062 C 188.894531 168.609375 194.019531 170.554688 192.753906 173.910156 C 186.925781 189.414062 185.871094 204.324219 189.625 218.226562 C 190.09375 219.957031 188.785156 221.660156 186.996094 221.660156 Z M 186.992188 221.660156 " fill-opacity="1" fill-rule="evenodd"/><g clip-path="url(#29009ed6db)"><path fill="#b3b3b3" d="M 248.613281 175.675781 L 43.515625 175.675781 C 35.964844 175.675781 29.820312 169.535156 29.820312 161.988281 L 29.820312 15.976562 C 29.820312 8.425781 35.964844 2.285156 43.515625 2.285156 L 248.613281 2.285156 C 256.167969 2.285156 262.316406 8.425781 262.316406 15.976562 L 262.316406 161.988281 C 262.316406 169.535156 256.167969 175.679688 248.613281 175.679688 Z M 248.613281 175.675781 " fill-opacity="1" fill-rule="evenodd"/></g><path fill="#b3b3b3" d="M 209.871094 221.753906 L 82.265625 221.753906 C 78.679688 221.753906 78.679688 216.308594 82.265625 216.308594 L 209.871094 216.308594 C 213.457031 216.308594 213.457031 221.753906 209.871094 221.753906 Z M 209.871094 221.753906 " fill-opacity="1" fill-rule="evenodd"/><path fill="#4a5254" d="M 152.828125 168.527344 L 128.636719 168.527344 C 125.050781 168.527344 125.050781 163.085938 128.636719 163.085938 L 152.828125 163.085938 C 156.414062 163.085938 156.414062 168.527344 152.828125 168.527344 Z M 152.828125 168.527344 " fill-opacity="1" fill-rule="evenodd"/><path fill="#89d3e5" d="M 239.835938 155.933594 L 52.296875 155.933594 C 50.792969 155.933594 49.570312 154.710938 49.570312 153.210938 L 49.570312 24.75 C 49.570312 23.246094 50.792969 22.027344 52.296875 22.027344 L 239.835938 22.027344 C 241.339844 22.027344 242.558594 23.246094 242.558594 24.75 L 242.558594 153.210938 C 242.5625 154.714844 241.339844 155.933594 239.835938 155.933594 Z M 239.835938 155.933594 " fill-opacity="1" fill-rule="evenodd"/><path fill="#76c9de" d="M 239.835938 22.027344 L 52.296875 22.027344 C 50.792969 22.027344 49.570312 23.246094 49.570312 24.75 L 49.570312 153.210938 L 242.558594 24.75 C 242.558594 23.246094 241.339844 22.027344 239.835938 22.027344 Z M 239.835938 22.027344 " fill-opacity="1" fill-rule="evenodd"/><path fill="#d7d7d7" d="M 84.847656 36.726562 L 207.285156 36.726562 C 208.789062 36.726562 210.007812 37.945312 210.007812 39.449219 L 210.007812 87.328125 C 210.007812 88.828125 208.789062 90.050781 207.285156 90.050781 L 84.847656 90.050781 C 83.34375 90.050781 82.121094 88.828125 82.121094 87.328125 L 82.121094 39.449219 C 82.121094 37.945312 83.34375 36.726562 84.847656 36.726562 Z M 84.847656 36.726562 " fill-opacity="1" fill-rule="nonzero"/><path fill="#b3b3b3" d="M 203.476562 141.234375 L 171.78125 141.234375 C 170.277344 141.234375 169.054688 140.015625 169.054688 138.511719 L 169.054688 100.15625 C 169.054688 98.652344 170.277344 97.429688 171.78125 97.429688 L 203.476562 97.429688 C 204.980469 97.429688 206.203125 98.652344 206.203125 100.15625 L 206.203125 138.511719 C 206.203125 140.015625 204.980469 141.234375 203.476562 141.234375 Z M 203.476562 141.234375 " fill-opacity="1" fill-rule="evenodd"/><path fill="#4a5254" d="M 150.78125 106.65625 L 90.648438 106.65625 C 87.058594 106.65625 87.058594 101.210938 90.648438 101.210938 L 150.78125 101.210938 C 154.371094 101.210938 154.371094 106.65625 150.78125 106.65625 Z M 150.78125 106.65625 " fill-opacity="1" fill-rule="evenodd"/><path fill="#4a5254" d="M 150.78125 122.058594 L 90.648438 122.058594 C 87.058594 122.058594 87.058594 116.613281 90.648438 116.613281 L 150.78125 116.613281 C 154.367188 116.613281 154.371094 122.058594 150.78125 122.058594 Z M 150.78125 122.058594 " fill-opacity="1" fill-rule="evenodd"/><path fill="#4a5254" d="M 150.78125 137.460938 L 90.648438 137.460938 C 87.058594 137.460938 87.058594 132.015625 90.648438 132.015625 L 150.78125 132.015625 C 154.371094 132.015625 154.371094 137.460938 150.78125 137.460938 Z M 150.78125 137.460938 " fill-opacity="1" fill-rule="evenodd"/><path fill="#fb505a" d="M 129.261719 79.054688 C 127.269531 79.054688 125.910156 76.929688 126.832031 75.097656 L 139.960938 49.199219 C 140.980469 47.183594 143.789062 47.273438 144.789062 49.140625 L 158.722656 75.039062 C 160.417969 78.195312 155.621094 80.777344 153.921875 77.617188 L 148.660156 67.832031 L 136.625 67.832031 L 131.691406 77.558594 C 131.214844 78.507812 130.253906 79.054688 129.261719 79.054688 Z M 145.730469 62.386719 L 142.464844 56.3125 L 139.382812 62.386719 Z M 145.730469 62.386719 " fill-opacity="1" fill-rule="evenodd"/><path fill="#fb505a" d="M 115.484375 79.066406 C 113.980469 79.066406 112.757812 77.847656 112.757812 76.34375 L 112.757812 53.300781 L 104.574219 53.300781 C 100.988281 53.300781 100.988281 47.855469 104.574219 47.855469 L 126.671875 47.855469 C 130.257812 47.855469 130.257812 53.300781 126.667969 53.300781 L 118.207031 53.300781 L 118.207031 76.34375 C 118.207031 77.847656 116.988281 79.066406 115.484375 79.066406 Z M 115.484375 79.066406 " fill-opacity="1" fill-rule="evenodd"/><path fill="#fb505a" d="M 168.226562 79.066406 C 166.046875 79.066406 164.6875 76.523438 166.046875 74.710938 L 174.488281 63.460938 L 166.046875 52.207031 C 163.902344 49.351562 168.261719 46.085938 170.40625 48.941406 L 177.894531 58.921875 L 185.378906 48.941406 C 187.523438 46.085938 191.882812 49.351562 189.742188 52.207031 L 181.300781 63.460938 L 189.738281 74.710938 C 191.902344 77.59375 187.507812 80.8125 185.378906 77.976562 L 177.894531 68 L 170.40625 77.976562 C 169.871094 78.691406 169.054688 79.066406 168.226562 79.066406 Z M 168.226562 79.066406 " fill-opacity="1" fill-rule="evenodd"/><path fill="#9cc735" d="M 187.230469 131.726562 C 179.226562 131.726562 177.003906 122.6875 181.527344 122.039062 C 184.683594 121.589844 184.292969 124.957031 185.324219 125.816406 C 187.019531 127.226562 191.097656 125.839844 189.65625 123.195312 C 188.648438 121.339844 179.933594 122.535156 179.933594 114.515625 C 179.933594 104.96875 194.710938 104.132812 196.042969 113.566406 C 196.546875 117.117188 191.148438 117.875 190.648438 114.328125 C 190.15625 110.859375 183.847656 112.292969 185.597656 115.492188 C 186.605469 117.335938 195.316406 116.144531 195.316406 124.160156 C 195.316406 128.738281 191.914062 131.722656 187.234375 131.722656 Z M 187.230469 131.726562 " fill-opacity="1" fill-rule="evenodd"/><path fill="#9cc735" d="M 187.628906 112.394531 C 183.8125 112.394531 183.8125 104.234375 187.628906 104.234375 C 191.445312 104.234375 191.449219 112.394531 187.628906 112.394531 Z M 187.628906 112.394531 " fill-opacity="1" fill-rule="evenodd"/><path fill="#9cc735" d="M 187.628906 134.492188 C 183.804688 134.492188 183.804688 126.257812 187.628906 126.257812 C 191.453125 126.257812 191.453125 134.492188 187.628906 134.492188 Z M 187.628906 134.492188 " fill-opacity="1" fill-rule="evenodd"/></svg>